<svg xmlns="http://www.w3.org/2000/svg" xmlns:xlink="http://www.w3.org/1999/xlink" width="500" zoomAndPan="magnify" viewBox="0 0 375 374.999991" height="500" preserveAspectRatio="xMidYMid meet" version="1.0"><defs><g/><clipPath id="id1"><path d="M 96.207031 85.191406 L 165.957031 85.191406 L 165.957031 151.941406 L 96.207031 151.941406 Z M 96.207031 85.191406 " clip-rule="nonzero"/></clipPath><clipPath id="id2"><path d="M 96.238281 106.027344 L 278.425781 106.027344 L 278.425781 175.027344 L 96.238281 175.027344 Z M 96.238281 106.027344 " clip-rule="nonzero"/></clipPath><clipPath id="id3"><path d="M 202 100 L 234 100 L 234 111 L 202 111 Z M 202 100 " clip-rule="nonzero"/></clipPath><clipPath id="id4"><path d="M 202.960938 80.769531 L 254.695312 82.054688 L 253.78125 118.792969 L 202.046875 117.507812 Z M 202.960938 80.769531 " clip-rule="nonzero"/></clipPath><clipPath id="id5"><path d="M 202.960938 80.769531 L 254.695312 82.054688 L 253.78125 118.792969 L 202.046875 117.507812 Z M 202.960938 80.769531 " clip-rule="nonzero"/></clipPath><clipPath id="id6"><path d="M 228 111 L 252 111 L 252 119 L 228 119 Z M 228 111 " clip-rule="nonzero"/></clipPath><clipPath id="id7"><path d="M 202.960938 80.769531 L 254.695312 82.054688 L 253.78125 118.792969 L 202.046875 117.507812 Z M 202.960938 80.769531 " clip-rule="nonzero"/></clipPath><clipPath id="id8"><path d="M 202.960938 80.769531 L 254.695312 82.054688 L 253.78125 118.792969 L 202.046875 117.507812 Z M 202.960938 80.769531 " clip-rule="nonzero"/></clipPath><clipPath id="id9"><path d="M 218 86 L 255 86 L 255 98 L 218 98 Z M 218 86 " clip-rule="nonzero"/></clipPath><clipPath id="id10"><path d="M 202.960938 80.769531 L 254.695312 82.054688 L 253.78125 118.792969 L 202.046875 117.507812 Z M 202.960938 80.769531 " clip-rule="nonzero"/></clipPath><clipPath id="id11"><path d="M 202.960938 80.769531 L 254.695312 82.054688 L 253.78125 118.792969 L 202.046875 117.507812 Z M 202.960938 80.769531 " clip-rule="nonzero"/></clipPath></defs><g clip-path="url(#id1)"><path fill="#e87442" d="M 165.4375 111.144531 L 135.046875 146.644531 L 127.214844 140.6875 L 115.453125 151.945312 C 114.804688 151.613281 114.171875 151.257812 113.546875 150.882812 C 112.921875 150.511719 112.308594 150.117188 111.707031 149.707031 C 111.105469 149.292969 110.519531 148.863281 109.945312 148.414062 C 109.371094 147.964844 108.8125 147.5 108.265625 147.015625 C 107.722656 146.535156 107.191406 146.035156 106.675781 145.515625 C 106.164062 145 105.664062 144.46875 105.183594 143.921875 C 104.703125 143.375 104.238281 142.8125 103.792969 142.234375 C 103.34375 141.660156 102.917969 141.070312 102.503906 140.46875 C 102.09375 139.863281 101.703125 139.25 101.332031 138.621094 C 100.960938 137.992188 100.605469 137.355469 100.273438 136.707031 C 99.941406 136.054688 99.628906 135.398438 99.335938 134.726562 C 99.042969 134.058594 98.773438 133.382812 98.519531 132.695312 C 98.269531 132.011719 98.042969 131.316406 97.835938 130.617188 C 97.625 129.917969 97.441406 129.210938 97.277344 128.5 C 97.113281 127.789062 96.96875 127.070312 96.851562 126.351562 C 96.730469 125.628906 96.632812 124.90625 96.558594 124.179688 C 96.484375 123.453125 96.429688 122.726562 96.398438 121.996094 C 96.371094 121.265625 96.363281 120.535156 96.375 119.804688 C 96.390625 119.074219 96.429688 118.34375 96.488281 117.617188 C 96.546875 116.890625 96.628906 116.164062 96.734375 115.441406 C 96.839844 114.71875 96.964844 114 97.117188 113.285156 C 97.265625 112.566406 97.433594 111.859375 97.628906 111.152344 C 97.820312 110.449219 98.035156 109.753906 98.269531 109.0625 C 98.507812 108.371094 98.765625 107.6875 99.042969 107.011719 C 99.320312 106.335938 99.617188 105.671875 99.9375 105.015625 C 100.257812 104.359375 100.597656 103.710938 100.957031 103.078125 C 101.316406 102.441406 101.691406 101.820312 102.089844 101.207031 C 102.488281 100.59375 102.902344 99.996094 103.339844 99.410156 C 103.773438 98.824219 104.226562 98.253906 104.695312 97.695312 C 105.164062 97.136719 105.652344 96.59375 106.15625 96.066406 C 106.65625 95.539062 107.175781 95.03125 107.710938 94.535156 C 108.246094 94.039062 108.796875 93.5625 109.359375 93.101562 C 109.925781 92.640625 110.503906 92.199219 111.09375 91.773438 C 111.6875 91.347656 112.289062 90.941406 112.90625 90.554688 C 113.523438 90.167969 114.152344 89.800781 114.792969 89.453125 C 115.429688 89.105469 116.082031 88.777344 116.738281 88.472656 C 117.398438 88.164062 118.066406 87.878906 118.746094 87.613281 C 119.421875 87.347656 120.105469 87.101562 120.800781 86.878906 C 121.492188 86.65625 122.191406 86.453125 122.894531 86.273438 C 123.601562 86.09375 124.308594 85.9375 125.023438 85.804688 C 125.738281 85.667969 126.457031 85.554688 127.179688 85.464844 C 127.898438 85.375 128.625 85.304688 129.347656 85.261719 C 130.074219 85.214844 130.800781 85.191406 131.527344 85.191406 C 132.253906 85.191406 132.980469 85.214844 133.707031 85.261719 C 134.433594 85.304688 135.15625 85.375 135.878906 85.464844 C 136.601562 85.554688 137.316406 85.667969 138.03125 85.800781 C 138.746094 85.9375 139.457031 86.09375 140.160156 86.273438 C 140.867188 86.453125 141.566406 86.652344 142.257812 86.875 C 142.949219 87.097656 143.636719 87.34375 144.3125 87.609375 C 144.988281 87.875 145.660156 88.160156 146.316406 88.46875 C 146.976562 88.773438 147.628906 89.101562 148.265625 89.449219 C 148.90625 89.796875 149.535156 90.164062 150.152344 90.550781 C 150.769531 90.9375 151.371094 91.34375 151.964844 91.769531 C 152.554688 92.191406 153.132812 92.636719 153.699219 93.097656 C 154.261719 93.554688 154.8125 94.035156 155.347656 94.527344 C 155.882812 95.023438 156.402344 95.535156 156.90625 96.0625 C 157.410156 96.589844 157.894531 97.128906 158.367188 97.6875 C 158.835938 98.246094 159.289062 98.816406 159.722656 99.402344 C 160.15625 99.988281 160.574219 100.585938 160.972656 101.199219 C 161.367188 101.808594 161.746094 102.433594 162.105469 103.070312 C 162.464844 103.703125 162.804688 104.351562 163.125 105.007812 C 163.445312 105.664062 163.742188 106.328125 164.019531 107.003906 C 164.300781 107.679688 164.554688 108.359375 164.792969 109.050781 C 165.027344 109.742188 165.242188 110.441406 165.4375 111.144531 Z M 165.4375 111.144531 " fill-opacity="1" fill-rule="nonzero"/></g><g clip-path="url(#id2)"><path fill="#4b2d20" d="M 96.238281 168.371094 L 125.730469 138.046875 L 132.789062 143.714844 L 166.09375 106.027344 L 178.511719 120.480469 L 182.746094 115.09375 L 201.371094 137.199219 L 219.859375 117.503906 L 240.605469 135.5 L 247.800781 130.253906 L 278.425781 158.734375 L 247.941406 138.332031 L 255.988281 156.75 L 221.128906 126.003906 L 210.261719 138.046875 L 224.234375 169.929688 L 182.746094 124.019531 L 178.933594 129.6875 L 166.515625 113.960938 L 145.910156 175.027344 L 144.78125 153.351562 L 127.144531 144.851562 L 96.238281 168.371094 " fill-opacity="1" fill-rule="nonzero"/></g><g clip-path="url(#id3)"><g clip-path="url(#id4)"><g clip-path="url(#id5)"><path fill="#4b2d20" d="M 217.855469 105.253906 C 217.5625 104.835938 211.757812 96.789062 202.429688 103.769531 C 202.429688 103.769531 208.214844 102.214844 211.578125 103.644531 C 213.410156 104.421875 217.386719 109.710938 217.71875 110.15625 C 217.722656 110.160156 217.730469 110.167969 217.734375 110.171875 C 217.734375 110.171875 217.742188 110.164062 217.746094 110.15625 C 218.101562 109.726562 222.339844 104.644531 224.203125 103.957031 C 227.632812 102.695312 233.335938 104.535156 233.335938 104.535156 C 224.363281 97.101562 218.167969 104.851562 217.855469 105.253906 " fill-opacity="1" fill-rule="nonzero"/></g></g></g><g clip-path="url(#id6)"><g clip-path="url(#id7)"><g clip-path="url(#id8)"><path fill="#4b2d20" d="M 239.957031 114.917969 C 239.746094 114.617188 235.574219 108.832031 228.871094 113.847656 C 228.871094 113.847656 233.03125 112.734375 235.445312 113.761719 C 236.761719 114.320312 239.617188 118.117188 239.859375 118.441406 C 239.863281 118.445312 239.867188 118.449219 239.867188 118.453125 C 239.871094 118.449219 239.875 118.445312 239.878906 118.441406 C 240.132812 118.132812 243.175781 114.476562 244.515625 113.984375 C 246.980469 113.078125 251.078125 114.402344 251.078125 114.402344 C 244.632812 109.058594 240.179688 114.628906 239.957031 114.917969 " fill-opacity="1" fill-rule="nonzero"/></g></g></g><g clip-path="url(#id9)"><g clip-path="url(#id10)"><g clip-path="url(#id11)"><path fill="#4b2d20" d="M 236.3125 91.339844 C 235.96875 90.851562 229.167969 81.421875 218.246094 89.597656 C 218.246094 89.597656 225.019531 87.777344 228.960938 89.453125 C 231.101562 90.363281 235.761719 96.558594 236.152344 97.082031 C 236.15625 97.085938 236.164062 97.097656 236.167969 97.101562 C 236.171875 97.097656 236.179688 97.085938 236.183594 97.082031 C 236.601562 96.578125 241.5625 90.625 243.746094 89.820312 C 247.761719 88.34375 254.441406 90.496094 254.441406 90.496094 C 243.933594 81.789062 236.675781 90.867188 236.3125 91.339844 " fill-opacity="1" fill-rule="nonzero"/></g></g></g><g fill="#4b2d20" fill-opacity="1"><g transform="translate(73.604415, 217.876217)"><g><path d="M -0.910156 -28.027344 C -1.140625 -28.027344 -1.328125 -27.949219 -1.480469 -27.796875 C -1.632812 -27.648438 -1.785156 -27.417969 -1.898438 -27.039062 C -2.011719 -26.734375 -2.050781 -26.46875 -2.050781 -26.164062 C -2.050781 -25.863281 -2.011719 -25.519531 -1.898438 -25.214844 C -1.707031 -24.570312 -1.292969 -24.230469 -0.683594 -24.191406 C 0.457031 -24.152344 1.328125 -24.152344 1.9375 -24.152344 C 2.316406 -24.152344 2.773438 -24.078125 3.265625 -23.964844 C 3.722656 -23.8125 3.988281 -23.203125 3.988281 -22.214844 L 3.988281 19.710938 C 3.988281 19.824219 3.988281 19.898438 4.0625 19.9375 C 4.40625 20.621094 5.050781 20.960938 6 20.960938 C 6.074219 20.960938 6.152344 20.960938 6.265625 20.925781 C 7.328125 20.847656 7.859375 20.316406 7.859375 19.328125 C 7.859375 7.0625 7.859375 -2.164062 7.898438 -8.316406 C 7.898438 -8.695312 7.976562 -9.152344 8.164062 -9.609375 C 8.355469 -10.0625 8.847656 -10.292969 9.683594 -10.292969 L 14.011719 -10.292969 C 14.960938 -10.292969 15.835938 -10.480469 16.671875 -10.898438 C 17.429688 -11.277344 18.113281 -11.8125 18.683594 -12.457031 C 19.214844 -13.0625 19.59375 -13.746094 19.898438 -14.507812 C 20.203125 -15.226562 20.355469 -15.988281 20.394531 -16.785156 C 20.394531 -16.824219 20.429688 -16.863281 20.429688 -16.898438 C 20.429688 -16.898438 20.394531 -16.9375 20.394531 -16.976562 C 20.394531 -16.976562 20.355469 -17.089844 20.355469 -17.277344 C 20.355469 -19.101562 20.394531 -20.507812 20.394531 -21.457031 C 20.394531 -21.53125 20.394531 -21.570312 20.394531 -21.644531 C 20.394531 -21.683594 20.355469 -21.796875 20.355469 -21.949219 C 20.277344 -23.011719 19.746094 -24.152344 18.796875 -25.445312 C 17.8125 -26.660156 16.367188 -27.53125 14.394531 -27.988281 C 14.316406 -27.988281 14.242188 -28.027344 14.242188 -28.027344 Z M 9.570312 -14.164062 C 9.304688 -14.164062 8.960938 -14.203125 8.542969 -14.355469 C 8.089844 -14.46875 7.898438 -15.039062 7.898438 -16.0625 L 7.898438 -22.480469 C 7.898438 -22.746094 7.9375 -23.089844 8.050781 -23.507812 C 8.164062 -23.925781 8.695312 -24.152344 9.683594 -24.152344 L 13.710938 -24.152344 C 14.847656 -23.847656 15.609375 -23.46875 15.949219 -22.9375 C 16.253906 -22.40625 16.445312 -21.914062 16.519531 -21.378906 L 16.519531 -16.976562 C 16.519531 -16.632812 16.445312 -16.292969 16.292969 -15.949219 C 16.140625 -15.570312 15.949219 -15.226562 15.722656 -15 C 15.496094 -14.695312 15.226562 -14.507812 14.960938 -14.394531 C 14.660156 -14.242188 14.355469 -14.164062 14.011719 -14.164062 Z M 9.570312 -14.164062 "/></g></g></g><g fill="#4b2d20" fill-opacity="1"><g transform="translate(97.716313, 217.876217)"><g><path d="M 11.203125 -28.027344 L 11.050781 -28.027344 C 10.976562 -28.027344 10.9375 -28.027344 11.011719 -28.027344 C 11.011719 -28.027344 10.976562 -28.027344 10.859375 -28.027344 C 10.710938 -27.988281 10.59375 -27.949219 10.519531 -27.914062 C 10.367188 -27.835938 10.214844 -27.761719 10.101562 -27.683594 C 9.949219 -27.609375 9.796875 -27.496094 9.722656 -27.378906 C 9.609375 -27.265625 9.53125 -27.152344 9.457031 -27 C 9.378906 -26.847656 9.304688 -26.695312 9.265625 -26.546875 C 8.960938 -25.445312 8.582031 -24.152344 8.203125 -22.632812 C 7.785156 -21.113281 7.328125 -19.480469 6.875 -17.8125 C 6.34375 -15.796875 5.773438 -13.785156 5.242188 -11.773438 C 4.671875 -9.722656 4.175781 -7.898438 3.722656 -6.34375 C 3.492188 -5.507812 3.265625 -4.746094 3.113281 -4.101562 C 2.925781 -3.417969 2.773438 -2.886719 2.660156 -2.507812 C 2.582031 -2.277344 2.582031 -2.125 2.582031 -1.976562 C 2.582031 -1.214844 3.074219 -0.722656 4.101562 -0.492188 C 4.40625 -0.378906 4.710938 -0.339844 4.976562 -0.339844 C 5.695312 -0.339844 6.152344 -0.683594 6.378906 -1.441406 C 6.757812 -2.960938 7.101562 -4.101562 7.328125 -4.859375 C 7.480469 -5.46875 7.710938 -5.808594 8.089844 -5.960938 C 8.429688 -6.074219 8.808594 -6.152344 9.265625 -6.152344 C 11.695312 -6.113281 13.558594 -6.113281 14.773438 -6.113281 C 15.152344 -6.113281 15.53125 -6.039062 15.910156 -5.886719 C 16.292969 -5.734375 16.558594 -5.277344 16.785156 -4.59375 L 17.695312 -1.0625 C 17.847656 -0.378906 18.609375 -0.191406 19.898438 -0.53125 C 20.925781 -0.757812 21.457031 -1.214844 21.457031 -1.859375 C 21.457031 -1.976562 21.417969 -2.125 21.378906 -2.277344 C 18.457031 -13.0625 16.292969 -21.191406 14.847656 -26.582031 C 14.8125 -26.660156 14.773438 -26.773438 14.773438 -26.847656 C 14.734375 -26.925781 14.695312 -26.964844 14.660156 -27.039062 L 14.355469 -27.417969 C 14.242188 -27.53125 14.128906 -27.648438 14.011719 -27.722656 C 13.859375 -27.796875 13.710938 -27.875 13.558594 -27.949219 L 13.101562 -28.027344 Z M 11.164062 -18.683594 C 11.242188 -19.027344 11.542969 -19.292969 12 -19.445312 C 12.078125 -19.445312 12.152344 -19.480469 12.226562 -19.480469 C 12.53125 -19.480469 12.796875 -19.214844 12.988281 -18.722656 C 13.292969 -17.546875 13.59375 -16.367188 13.9375 -15.226562 L 14.847656 -11.734375 C 14.886719 -11.582031 14.925781 -11.355469 14.925781 -11.050781 L 14.925781 -10.710938 C 14.886719 -10.214844 14.429688 -9.988281 13.59375 -9.988281 C 13.0625 -9.988281 12.53125 -10.027344 12.039062 -10.027344 L 10.480469 -10.027344 C 10.328125 -10.027344 10.027344 -10.0625 9.570312 -10.214844 C 9.265625 -10.292969 9.113281 -10.558594 9.113281 -10.976562 C 9.113281 -11.203125 9.152344 -11.46875 9.265625 -11.773438 C 9.570312 -12.910156 9.875 -14.089844 10.214844 -15.226562 C 10.519531 -16.367188 10.824219 -17.546875 11.164062 -18.683594 Z M 11.164062 -18.683594 "/></g></g></g><g fill="#4b2d20" fill-opacity="1"><g transform="translate(121.828211, 217.876217)"><g><path d="M 5.695312 -28.027344 L 5.582031 -28.027344 C 5.507812 -28.027344 5.46875 -28.027344 5.507812 -28.027344 L 5.542969 -28.027344 C 5.542969 -28.027344 5.507812 -27.988281 5.394531 -27.988281 C 5.242188 -27.949219 5.125 -27.914062 5.050781 -27.914062 C 4.898438 -27.835938 4.746094 -27.761719 4.632812 -27.683594 C 4.480469 -27.570312 4.328125 -27.457031 4.253906 -27.378906 C 4.140625 -27.230469 4.0625 -27.113281 3.988281 -26.964844 C 3.910156 -26.8125 3.835938 -26.660156 3.835938 -26.507812 C 3.796875 -15.304688 3.757812 -6.910156 3.757812 -1.328125 C 3.757812 -0.53125 4.292969 -0.152344 5.429688 -0.152344 L 5.695312 -0.152344 C 6.949219 -0.191406 7.59375 -0.644531 7.632812 -1.480469 L 7.632812 -8.355469 C 7.632812 -8.808594 7.671875 -9.226562 7.824219 -9.644531 C 7.898438 -10.027344 8.355469 -10.253906 9.113281 -10.253906 L 10.445312 -10.253906 C 11.355469 -10.253906 11.925781 -10.0625 12.226562 -9.683594 C 12.492188 -9.304688 12.835938 -8.660156 13.253906 -7.824219 C 14.621094 -4.859375 15.683594 -2.621094 16.367188 -1.175781 C 16.40625 -1.101562 16.445312 -1.023438 16.480469 -0.949219 C 16.519531 -0.875 16.558594 -0.796875 16.632812 -0.757812 C 17.011719 -0.191406 17.734375 -0.113281 18.761719 -0.492188 C 19.746094 -0.875 20.164062 -1.40625 20.050781 -2.089844 L 19.976562 -2.542969 C 19.898438 -2.695312 19.863281 -2.847656 19.785156 -3 C 18.496094 -5.734375 17.507812 -7.824219 16.898438 -9.191406 C 16.710938 -9.570312 16.59375 -9.949219 16.558594 -10.328125 C 16.519531 -10.671875 16.785156 -11.050781 17.394531 -11.507812 C 17.582031 -11.621094 17.773438 -11.773438 17.960938 -11.925781 C 18.113281 -12.078125 18.265625 -12.265625 18.417969 -12.417969 C 18.949219 -13.027344 19.367188 -13.710938 19.671875 -14.46875 C 19.976562 -15.226562 20.128906 -15.988281 20.164062 -16.785156 L 20.164062 -16.976562 C 20.164062 -17.011719 20.128906 -17.128906 20.128906 -17.277344 C 20.128906 -19.101562 20.164062 -20.507812 20.164062 -21.457031 L 20.164062 -21.609375 C 20.164062 -21.644531 20.128906 -21.761719 20.128906 -21.914062 C 20.050781 -22.976562 19.519531 -24.152344 18.570312 -25.40625 C 17.582031 -26.660156 16.101562 -27.496094 14.164062 -27.949219 C 14.089844 -27.949219 14.011719 -27.988281 13.976562 -27.988281 C 13.9375 -27.988281 13.824219 -27.988281 13.671875 -28.027344 Z M 9.835938 -14.164062 C 9.378906 -14.164062 8.925781 -14.203125 8.394531 -14.355469 C 7.859375 -14.507812 7.632812 -15.078125 7.632812 -16.101562 L 7.632812 -22.328125 C 7.632812 -22.597656 7.710938 -22.976562 7.859375 -23.429688 C 7.976562 -23.886719 8.582031 -24.152344 9.644531 -24.152344 L 13.445312 -24.152344 C 14.621094 -23.847656 15.378906 -23.429688 15.722656 -22.898438 C 16.027344 -22.367188 16.214844 -21.796875 16.292969 -21.265625 L 16.292969 -16.976562 C 16.292969 -16.632812 16.214844 -16.292969 16.0625 -15.949219 C 15.910156 -15.570312 15.722656 -15.226562 15.496094 -14.960938 C 15.265625 -14.695312 15 -14.507812 14.734375 -14.355469 C 14.429688 -14.203125 14.128906 -14.164062 13.785156 -14.164062 Z M 9.835938 -14.164062 "/></g></g></g><g fill="#4b2d20" fill-opacity="1"><g transform="translate(146.054024, 217.876217)"><g><path d="M 7.785156 -26.050781 C 7.785156 -27.039062 7.101562 -27.496094 5.773438 -27.457031 C 4.40625 -27.378906 3.796875 -26.773438 3.949219 -25.710938 C 3.910156 -19.898438 3.910156 -15.53125 3.910156 -12.644531 L 3.910156 -1.707031 C 3.910156 -1.632812 3.910156 -1.558594 3.949219 -1.480469 C 4.40625 -0.683594 5.164062 -0.378906 6.191406 -0.609375 C 7.175781 -0.757812 7.710938 -1.292969 7.785156 -2.125 L 7.785156 -6.910156 C 7.785156 -7.292969 7.785156 -7.785156 7.824219 -8.355469 C 7.859375 -8.886719 8.089844 -9.378906 8.542969 -9.910156 C 8.925781 -10.40625 9.265625 -10.785156 9.492188 -11.050781 C 9.988281 -11.660156 10.40625 -11.8125 10.785156 -11.507812 C 11.128906 -11.164062 11.355469 -10.898438 11.507812 -10.710938 C 13.976562 -6.378906 15.835938 -3.152344 17.089844 -0.988281 C 17.128906 -0.910156 17.164062 -0.835938 17.203125 -0.757812 C 17.203125 -0.683594 17.277344 -0.609375 17.355469 -0.609375 C 17.660156 -0.417969 18 -0.339844 18.34375 -0.339844 C 18.796875 -0.339844 19.292969 -0.53125 19.785156 -0.988281 C 20.546875 -1.671875 20.773438 -2.277344 20.507812 -2.847656 L 14.128906 -13.898438 C 13.9375 -14.203125 13.746094 -14.621094 13.59375 -15.078125 C 13.445312 -15.53125 13.710938 -16.179688 14.394531 -17.011719 C 17.242188 -20.46875 19.40625 -23.089844 20.847656 -24.835938 C 20.886719 -24.875 20.925781 -24.949219 21 -25.027344 C 21.039062 -25.0625 21.078125 -25.140625 21.113281 -25.214844 C 21.152344 -25.367188 21.191406 -25.558594 21.191406 -25.710938 C 21.191406 -26.28125 20.8125 -26.8125 20.128906 -27.34375 C 19.671875 -27.648438 19.253906 -27.796875 18.875 -27.796875 C 18.496094 -27.796875 18.152344 -27.648438 17.886719 -27.34375 C 14.164062 -22.824219 11.355469 -19.445312 9.53125 -17.203125 C 8.925781 -16.480469 8.507812 -16.328125 8.203125 -16.746094 C 7.898438 -17.128906 7.746094 -17.46875 7.785156 -17.8125 Z M 7.785156 -26.050781 "/></g></g></g><g fill="#4b2d20" fill-opacity="1"><g transform="translate(171.039268, 217.876217)"><g/></g></g><g fill="#4b2d20" fill-opacity="1"><g transform="translate(192.18939, 217.876217)"><g><path d="M 12.304688 -28.027344 L 12.265625 -28.027344 C 11.355469 -28.027344 10.40625 -27.914062 9.492188 -27.722656 C 8.582031 -27.496094 7.710938 -27.152344 6.875 -26.695312 C 6.039062 -26.203125 5.316406 -25.519531 4.710938 -24.609375 C 4.101562 -23.695312 3.796875 -22.671875 3.796875 -21.53125 L 3.796875 -6.53125 C 3.796875 -6.457031 3.796875 -6.378906 3.835938 -6.226562 C 3.875 -5.164062 4.214844 -4.175781 4.859375 -3.304688 C 5.46875 -2.390625 6.191406 -1.707031 7.0625 -1.253906 C 7.898438 -0.757812 8.734375 -0.457031 9.644531 -0.304688 C 10.519531 -0.152344 11.355469 -0.0742188 12.152344 -0.0742188 C 12.570312 -0.0742188 12.988281 -0.0742188 13.445312 -0.113281 C 13.859375 -0.152344 14.277344 -0.226562 14.660156 -0.304688 C 14.886719 -0.304688 15.226562 -0.339844 15.761719 -0.339844 C 16.214844 -0.304688 16.480469 0.113281 16.480469 0.949219 L 16.480469 19.101562 C 16.671875 19.863281 17.242188 20.277344 18.152344 20.394531 C 18.265625 20.429688 18.378906 20.429688 18.53125 20.429688 C 19.292969 20.429688 19.898438 20.089844 20.355469 19.328125 L 20.355469 -13.367188 C 20.355469 -13.40625 20.316406 -13.519531 20.316406 -13.671875 L 20.316406 -13.976562 C 20.316406 -14.050781 20.316406 -14.128906 20.316406 -14.203125 C 20.316406 -14.277344 20.277344 -14.394531 20.277344 -14.46875 C 20.203125 -14.621094 20.164062 -14.734375 20.089844 -14.886719 C 20.011719 -15.039062 19.898438 -15.152344 19.824219 -15.304688 L 19.445312 -15.609375 C 19.292969 -15.683594 19.140625 -15.722656 18.988281 -15.796875 C 18.835938 -15.835938 18.683594 -15.875 18.53125 -15.910156 C 18.378906 -15.910156 18.191406 -15.875 18.039062 -15.875 C 15.570312 -15.875 13.710938 -15.910156 12.492188 -15.910156 C 11.660156 -15.835938 11.242188 -15.226562 11.164062 -14.164062 C 11.089844 -13.101562 11.46875 -12.378906 12.378906 -12.039062 L 14.46875 -12.039062 C 15.496094 -12.039062 16.101562 -11.773438 16.253906 -11.277344 C 16.367188 -10.746094 16.445312 -10.292969 16.445312 -9.835938 L 16.445312 -6.039062 C 16.445312 -5.734375 16.367188 -5.507812 16.292969 -5.355469 C 16.179688 -5.125 15.988281 -4.9375 15.683594 -4.746094 C 15.34375 -4.519531 14.886719 -4.328125 14.316406 -4.175781 C 13.710938 -4.027344 12.988281 -3.949219 12.152344 -3.949219 C 11.542969 -3.949219 10.976562 -3.988281 10.40625 -4.101562 C 9.835938 -4.214844 9.34375 -4.40625 8.960938 -4.632812 C 8.582031 -4.859375 8.277344 -5.089844 8.050781 -5.394531 C 7.824219 -5.695312 7.671875 -6.152344 7.671875 -6.835938 L 7.671875 -21.53125 C 7.671875 -21.988281 7.746094 -22.328125 7.9375 -22.597656 C 8.089844 -22.824219 8.394531 -23.089844 8.808594 -23.355469 C 9.492188 -23.734375 10.175781 -24 10.824219 -24.113281 C 11.429688 -24.191406 12.078125 -24.230469 12.761719 -24.230469 C 13.558594 -24.191406 14.316406 -23.925781 15.078125 -23.429688 C 15.796875 -22.898438 16.253906 -22.367188 16.445312 -21.796875 L 16.519531 -21.570312 C 16.519531 -21.496094 16.558594 -21.417969 16.632812 -21.34375 C 16.9375 -20.960938 17.546875 -20.886719 18.496094 -21.152344 C 19.445312 -21.378906 19.976562 -22.027344 20.128906 -23.089844 C 19.671875 -24.644531 18.683594 -25.863281 17.164062 -26.734375 C 15.683594 -27.570312 14.089844 -28.027344 12.378906 -28.027344 Z M 12.304688 -28.027344 "/></g></g></g><g fill="#4b2d20" fill-opacity="1"><g transform="translate(216.301289, 217.876217)"><g><path d="M 7.898438 -26.164062 C 7.898438 -27.152344 7.214844 -27.609375 5.925781 -27.570312 C 4.632812 -27.496094 3.988281 -26.925781 4.027344 -25.863281 C 4.027344 -17.886719 3.988281 -11.886719 3.988281 -7.898438 C 3.988281 -6.492188 4.253906 -5.277344 4.824219 -4.214844 C 5.355469 -3.152344 6.074219 -2.316406 6.949219 -1.707031 C 7.785156 -1.101562 8.734375 -0.683594 9.722656 -0.457031 C 10.671875 -0.226562 11.582031 -0.152344 12.492188 -0.152344 C 13.480469 -0.152344 14.507812 -0.265625 15.496094 -0.570312 C 16.445312 -0.875 17.316406 -1.328125 18.152344 -1.976562 C 18.949219 -2.582031 19.59375 -3.378906 20.128906 -4.367188 C 20.582031 -5.277344 20.8125 -6.265625 20.8125 -7.367188 L 20.8125 -26.164062 C 20.8125 -27.039062 20.128906 -27.496094 18.835938 -27.570312 C 18.761719 -27.570312 18.683594 -27.609375 18.644531 -27.609375 C 17.46875 -27.570312 16.898438 -27.039062 16.9375 -26.011719 L 16.9375 -7.441406 C 16.9375 -7.40625 16.9375 -7.292969 16.976562 -7.140625 C 16.898438 -6.683594 16.785156 -6.265625 16.632812 -5.960938 C 16.480469 -5.660156 16.179688 -5.355469 15.796875 -5.050781 C 15.417969 -4.746094 14.925781 -4.480469 14.316406 -4.292969 C 13.710938 -4.101562 13.101562 -4.027344 12.492188 -4.027344 C 11.886719 -4.027344 11.277344 -4.101562 10.671875 -4.253906 C 10.0625 -4.367188 9.570312 -4.558594 9.191406 -4.859375 C 8.773438 -5.125 8.46875 -5.46875 8.242188 -5.925781 C 8.011719 -6.34375 7.898438 -6.988281 7.898438 -7.898438 Z M 7.898438 -26.164062 "/></g></g></g><g fill="#4b2d20" fill-opacity="1"><g transform="translate(241.286532, 217.876217)"><g><path d="M 7.710938 -26.011719 C 7.710938 -27.039062 7.0625 -27.570312 5.847656 -27.570312 L 5.808594 -27.570312 C 4.519531 -27.53125 3.875 -26.925781 3.875 -25.710938 C 3.835938 -15.152344 3.835938 -7.214844 3.835938 -1.9375 C 3.835938 -1.175781 4.441406 -0.722656 5.734375 -0.644531 L 6.074219 -0.644531 C 7.101562 -0.644531 7.632812 -1.101562 7.710938 -2.089844 Z M 7.710938 -26.011719 "/></g></g></g><g fill="#4b2d20" fill-opacity="1"><g transform="translate(252.981752, 217.876217)"><g><path d="M 5.847656 -28.027344 L 5.695312 -28.027344 C 5.621094 -28.027344 5.621094 -28.027344 5.660156 -28.027344 L 5.695312 -28.027344 C 5.695312 -28.027344 5.660156 -27.988281 5.542969 -27.988281 C 5.394531 -27.949219 5.277344 -27.914062 5.203125 -27.914062 C 5.050781 -27.835938 4.898438 -27.761719 4.785156 -27.683594 C 4.632812 -27.609375 4.480469 -27.496094 4.40625 -27.378906 C 4.292969 -27.230469 4.214844 -27.113281 4.140625 -26.964844 C 4.0625 -26.8125 3.988281 -26.660156 3.949219 -26.507812 C 3.949219 -15.609375 3.910156 -7.441406 3.910156 -1.976562 L 3.910156 -1.746094 L 3.988281 -1.519531 C 4.027344 -1.367188 4.101562 -1.214844 4.175781 -1.0625 C 4.253906 -0.910156 4.328125 -0.757812 4.441406 -0.683594 C 4.519531 -0.53125 4.671875 -0.457031 4.824219 -0.378906 C 4.9375 -0.265625 5.089844 -0.191406 5.242188 -0.152344 C 5.394531 -0.0742188 5.542969 -0.0742188 5.734375 -0.0742188 C 5.886719 -0.0390625 6.039062 -0.0390625 6.191406 -0.0742188 C 9.683594 -0.0742188 12.34375 -0.0390625 14.089844 -0.0390625 C 14.695312 -0.0390625 15.378906 -0.113281 16.101562 -0.265625 C 16.824219 -0.378906 17.546875 -0.644531 18.226562 -1.101562 C 18.910156 -1.558594 19.480469 -2.164062 19.9375 -3 C 20.394531 -3.757812 20.660156 -4.671875 20.8125 -5.734375 L 20.8125 -5.925781 C 20.8125 -5.960938 20.773438 -6.074219 20.773438 -6.226562 C 20.773438 -13.027344 20.8125 -18.113281 20.8125 -21.53125 L 20.8125 -21.722656 C 20.8125 -21.761719 20.773438 -21.875 20.773438 -22.027344 C 20.660156 -22.558594 20.507812 -23.164062 20.277344 -23.8125 C 20.050781 -24.417969 19.710938 -25.027344 19.292969 -25.597656 C 18.835938 -26.164062 18.304688 -26.660156 17.621094 -27.078125 C 16.9375 -27.457031 16.214844 -27.761719 15.417969 -27.988281 L 15.226562 -27.988281 C 15.152344 -27.988281 15.078125 -28.027344 14.925781 -28.027344 Z M 9.875 -3.949219 C 9.53125 -3.949219 9.113281 -4.027344 8.582031 -4.175781 C 8.050781 -4.292969 7.785156 -4.9375 7.785156 -6.152344 L 7.785156 -22.292969 C 7.785156 -22.597656 7.859375 -22.976562 8.011719 -23.429688 C 8.125 -23.886719 8.695312 -24.152344 9.761719 -24.152344 L 14.695312 -24.152344 C 15.078125 -24.039062 15.417969 -23.886719 15.644531 -23.734375 C 15.875 -23.582031 16.0625 -23.394531 16.214844 -23.242188 C 16.367188 -23.011719 16.480469 -22.710938 16.632812 -22.40625 C 16.746094 -22.0625 16.863281 -21.683594 16.9375 -21.265625 L 16.9375 -6.113281 C 16.863281 -5.507812 16.746094 -5.125 16.59375 -4.898438 C 16.445312 -4.671875 16.253906 -4.480469 16.101562 -4.367188 C 15.875 -4.214844 15.609375 -4.140625 15.265625 -4.0625 C 14.886719 -3.988281 14.507812 -3.949219 14.089844 -3.949219 Z M 9.875 -3.949219 "/></g></g></g><g fill="#4b2d20" fill-opacity="1"><g transform="translate(277.966995, 217.876217)"><g><path d="M 5.847656 -28.101562 C 5.808594 -28.101562 5.773438 -28.0625 5.695312 -28.0625 C 5.621094 -28.0625 5.621094 -28.0625 5.660156 -28.101562 L 5.695312 -28.101562 C 5.695312 -28.101562 5.660156 -28.0625 5.542969 -28.0625 C 5.394531 -28.027344 5.277344 -27.988281 5.203125 -27.988281 C 5.050781 -27.914062 4.898438 -27.796875 4.785156 -27.722656 C 4.632812 -27.648438 4.480469 -27.53125 4.40625 -27.417969 C 4.292969 -27.304688 4.214844 -27.191406 4.140625 -27.039062 C 4.0625 -26.886719 3.988281 -26.734375 3.949219 -26.582031 C 3.949219 -15.644531 3.910156 -7.480469 3.910156 -2.050781 L 3.910156 -1.824219 C 3.910156 -1.707031 3.949219 -1.632812 3.988281 -1.558594 C 4.027344 -1.40625 4.101562 -1.292969 4.175781 -1.140625 C 4.253906 -0.988281 4.328125 -0.835938 4.441406 -0.722656 C 4.519531 -0.609375 4.671875 -0.492188 4.824219 -0.417969 C 4.9375 -0.339844 5.089844 -0.265625 5.242188 -0.226562 C 5.394531 -0.152344 5.542969 -0.113281 5.734375 -0.113281 C 5.886719 -0.113281 6.039062 -0.113281 6.191406 -0.152344 C 11.050781 -0.113281 14.734375 -0.113281 17.203125 -0.113281 C 17.886719 -0.113281 18.265625 -0.722656 18.34375 -1.976562 L 18.34375 -2.203125 C 18.34375 -3.265625 17.886719 -3.875 17.050781 -3.988281 L 9.609375 -3.988281 C 9.304688 -3.988281 8.925781 -4.027344 8.46875 -4.175781 C 8.011719 -4.328125 7.785156 -4.898438 7.785156 -5.925781 L 7.785156 -10.253906 C 7.785156 -10.710938 7.859375 -11.164062 8.011719 -11.621094 C 8.125 -12.078125 8.660156 -12.34375 9.570312 -12.34375 L 14.773438 -12.34375 C 15.113281 -12.304688 15.378906 -12.457031 15.609375 -12.835938 C 15.761719 -13.140625 15.875 -13.519531 15.910156 -13.976562 C 15.949219 -14.507812 15.875 -15 15.683594 -15.496094 C 15.457031 -15.949219 15.152344 -16.214844 14.773438 -16.214844 L 9.609375 -16.214844 C 9.304688 -16.214844 8.960938 -16.253906 8.507812 -16.40625 C 8.011719 -16.558594 7.785156 -17.164062 7.785156 -18.226562 L 7.785156 -22.140625 C 7.785156 -22.519531 7.859375 -22.976562 8.011719 -23.46875 C 8.164062 -23.925781 8.734375 -24.191406 9.761719 -24.191406 L 17.089844 -24.191406 C 17.355469 -24.191406 17.582031 -24.34375 17.8125 -24.644531 C 18 -24.949219 18.113281 -25.40625 18.191406 -26.011719 C 18.191406 -26.621094 18.113281 -27.113281 17.925781 -27.496094 C 17.695312 -27.835938 17.355469 -28.027344 16.9375 -28.0625 C 11.394531 -28.0625 7.671875 -28.0625 5.847656 -28.101562 Z M 5.847656 -28.101562 "/></g></g></g><g fill="#4b2d20" fill-opacity="1"><g transform="translate(135.510125, 279.412778)"><g><path d="M 5.902344 -11.53125 L 0.90625 0.378906 L 4.476562 1.878906 L 4.804688 1.089844 L 2.832031 0.261719 L 4.667969 -4.117188 L 5.851562 -3.621094 L 6.578125 -4.242188 L 5 -4.90625 L 7.167969 -10.074219 L 8.746094 -9.410156 L 9.472656 -10.035156 Z M 5.902344 -11.53125 "/></g></g></g><g fill="#4b2d20" fill-opacity="1"><g transform="translate(145.222928, 283.292348)"><g><path d="M 4.722656 -4.980469 L 0.511719 0.160156 L 1.328125 0.421875 L 4.792969 -3.777344 L 5.015625 1.589844 L 6.667969 2.113281 L 6.320312 -5.652344 L 10.164062 -10.328125 L 9.347656 -10.589844 L 6.269531 -6.847656 L 6.0625 -11.628906 L 4.414062 -12.152344 Z M 4.722656 -4.980469 "/></g></g></g><g fill="#4b2d20" fill-opacity="1"><g transform="translate(157.345994, 286.860922)"><g><path d="M 3.546875 -11.121094 L 1.117188 0.238281 L 2.808594 0.601562 L 3.890625 -4.460938 C 4.449219 -4.339844 4.949219 -4.289062 5.394531 -4.320312 C 5.839844 -4.351562 6.234375 -4.488281 6.574219 -4.726562 C 6.917969 -4.960938 7.226562 -5.296875 7.472656 -5.753906 C 7.714844 -6.214844 7.910156 -6.792969 8.066406 -7.527344 C 8.21875 -8.222656 8.277344 -8.847656 8.242188 -9.367188 C 8.207031 -9.886719 8.0625 -10.316406 7.847656 -10.675781 C 7.628906 -11.011719 7.324219 -11.296875 6.933594 -11.527344 C 6.542969 -11.738281 6.070312 -11.914062 5.511719 -12.03125 L 3.398438 -12.484375 Z M 4.109375 -5.488281 L 5.285156 -10.984375 C 5.601562 -10.917969 5.84375 -10.773438 6.019531 -10.574219 C 6.191406 -10.351562 6.304688 -10.109375 6.375 -9.839844 C 6.421875 -9.554688 6.445312 -9.242188 6.429688 -8.914062 C 6.394531 -8.578125 6.359375 -8.238281 6.289062 -7.90625 C 6.214844 -7.558594 6.105469 -7.214844 6.003906 -6.910156 C 5.878906 -6.589844 5.726562 -6.3125 5.570312 -6.089844 C 5.394531 -5.851562 5.191406 -5.675781 4.949219 -5.566406 C 4.707031 -5.453125 4.425781 -5.421875 4.109375 -5.488281 Z M 4.109375 -5.488281 "/></g></g></g><g fill="#4b2d20" fill-opacity="1"><g transform="translate(169.033993, 289.101608)"><g><path d="M 2.558594 -12.699219 L 0.972656 0.121094 L 4.816406 0.597656 L 4.921875 -0.253906 L 2.796875 -0.515625 L 3.378906 -5.226562 L 4.65625 -5.070312 L 5.183594 -5.867188 L 3.484375 -6.078125 L 4.171875 -11.636719 L 5.871094 -11.425781 L 6.402344 -12.222656 Z M 2.558594 -12.699219 "/></g></g></g><g fill="#4b2d20" fill-opacity="1"><g transform="translate(179.41657, 290.195876)"><g><path d="M 1.570312 -12.011719 L 1.140625 0.0390625 L 2.871094 0.101562 C 5.152344 0.183594 6.390625 -1.933594 6.542969 -6.230469 C 6.695312 -10.507812 5.613281 -12.707031 3.332031 -12.808594 L 1.171875 -12.882812 Z M 2.910156 -0.949219 L 3.292969 -11.738281 C 3.84375 -11.683594 4.238281 -11.238281 4.496094 -10.390625 C 4.75 -9.527344 4.84375 -8.164062 4.777344 -6.292969 C 4.710938 -4.402344 4.519531 -3.054688 4.203125 -2.226562 C 3.886719 -1.378906 3.460938 -0.964844 2.910156 -0.949219 Z M 2.910156 -0.949219 "/></g></g></g><g fill="#4b2d20" fill-opacity="1"><g transform="translate(191.269607, 290.352973)"><g><path d="M 0.398438 -12.949219 L 0.980469 -0.0429688 L 2.710938 -0.121094 L 2.128906 -13.027344 Z M 0.398438 -12.949219 "/></g></g></g><g fill="#4b2d20" fill-opacity="1"><g transform="translate(199.936573, 289.818021)"><g><path d="M 0.769531 -12.25 L 2.25 -0.277344 L 3.949219 -0.488281 L 2.46875 -12.457031 L 4.1875 -12.671875 L 4.082031 -13.519531 L -1.054688 -12.886719 L -0.949219 -12.035156 Z M 0.769531 -12.25 "/></g></g></g><g fill="#4b2d20" fill-opacity="1"><g transform="translate(211.050824, 288.198972)"><g><path d="M -1.617188 -12.855469 L 0.960938 -0.195312 L 2.65625 -0.542969 L 0.078125 -13.199219 Z M -1.617188 -12.855469 "/></g></g></g><g fill="#4b2d20" fill-opacity="1"><g transform="translate(219.580772, 286.333898)"><g><path d="M 3.816406 -1.121094 C 4.554688 -1.339844 5.085938 -1.683594 5.417969 -2.1875 C 5.757812 -2.679688 5.941406 -3.253906 6.011719 -3.90625 C 6.0625 -4.554688 6.003906 -5.261719 5.851562 -6.035156 C 5.703125 -6.792969 5.519531 -7.539062 5.296875 -8.292969 C 5.082031 -9.027344 4.832031 -9.753906 4.546875 -10.46875 C 4.261719 -11.183594 3.925781 -11.8125 3.527344 -12.347656 C 3.117188 -12.855469 2.652344 -13.242188 2.097656 -13.488281 C 1.546875 -13.714844 0.90625 -13.730469 0.171875 -13.515625 C -0.582031 -13.292969 -1.109375 -12.933594 -1.449219 -12.445312 C -1.78125 -11.9375 -1.964844 -11.363281 -2.015625 -10.714844 C -2.082031 -10.042969 -2.019531 -9.335938 -1.875 -8.582031 C -1.726562 -7.824219 -1.527344 -7.082031 -1.308594 -6.347656 C -1.085938 -5.59375 -0.855469 -4.863281 -0.570312 -4.148438 C -0.277344 -3.414062 0.0546875 -2.789062 0.464844 -2.277344 C 0.859375 -1.757812 1.324219 -1.375 1.875 -1.148438 C 2.433594 -0.902344 3.0625 -0.902344 3.816406 -1.121094 Z M 3.574219 -1.945312 C 3.300781 -1.863281 3.035156 -1.953125 2.753906 -2.207031 C 2.457031 -2.453125 2.1875 -2.800781 1.917969 -3.28125 C 1.636719 -3.734375 1.382812 -4.277344 1.125 -4.90625 C 0.863281 -5.535156 0.636719 -6.175781 0.4375 -6.859375 C 0.242188 -7.527344 0.0820312 -8.1875 -0.0390625 -8.859375 C -0.164062 -9.53125 -0.242188 -10.121094 -0.257812 -10.675781 C -0.285156 -11.207031 -0.25 -11.660156 -0.136719 -12.03125 C -0.0390625 -12.394531 0.140625 -12.613281 0.414062 -12.695312 C 0.671875 -12.769531 0.9375 -12.679688 1.234375 -12.433594 C 1.511719 -12.179688 1.789062 -11.816406 2.070312 -11.359375 C 2.359375 -10.886719 2.609375 -10.347656 2.871094 -9.714844 C 3.128906 -9.085938 3.355469 -8.445312 3.550781 -7.777344 C 3.753906 -7.09375 3.910156 -6.433594 4.035156 -5.761719 C 4.15625 -5.089844 4.238281 -4.5 4.246094 -3.964844 C 4.261719 -3.410156 4.222656 -2.972656 4.125 -2.609375 C 4.007812 -2.238281 3.832031 -2.019531 3.574219 -1.945312 Z M 3.574219 -1.945312 "/></g></g></g><g fill="#4b2d20" fill-opacity="1"><g transform="translate(232.070975, 282.381161)"><g><path d="M -3.394531 -11.332031 L 1.058594 -0.433594 L 1.851562 -0.753906 L -1.734375 -9.527344 L 5.136719 -2.097656 L 6.226562 -2.542969 L 1.34375 -14.503906 L 0.550781 -14.179688 L 3.96875 -5.804688 L -2.636719 -12.875 L -4.222656 -12.230469 C -4.21875 -12.210938 -4.144531 -12.125 -4.003906 -11.972656 C -3.855469 -11.800781 -3.65625 -11.59375 -3.394531 -11.332031 Z M -3.394531 -11.332031 "/></g></g></g><g fill="#4b2d20" fill-opacity="1"><g transform="translate(157.33435, 250.00866)"><g><path d="M 2.238281 0 C 2.511719 0 2.753906 -0.0546875 3 -0.164062 C 3.246094 -0.273438 3.453125 -0.421875 3.640625 -0.628906 C 3.820312 -0.832031 3.957031 -1.078125 4.066406 -1.363281 C 4.160156 -1.636719 4.203125 -1.949219 4.203125 -2.304688 C 4.203125 -2.605469 4.160156 -2.878906 4.09375 -3.152344 C 4.011719 -3.410156 3.914062 -3.667969 3.804688 -3.914062 C 3.695312 -4.160156 3.5625 -4.394531 3.410156 -4.625 C 3.261719 -4.855469 3.109375 -5.089844 2.960938 -5.308594 C 2.742188 -5.621094 2.539062 -5.933594 2.359375 -6.234375 C 2.167969 -6.535156 2.046875 -6.835938 1.976562 -7.164062 C 1.949219 -7.230469 1.9375 -7.296875 1.9375 -7.378906 C 1.921875 -7.449219 1.921875 -7.515625 1.921875 -7.597656 C 1.921875 -7.886719 1.992188 -8.144531 2.128906 -8.390625 C 2.265625 -8.621094 2.46875 -8.746094 2.753906 -8.746094 C 2.917969 -8.746094 3.070312 -8.675781 3.21875 -8.566406 C 3.371094 -8.457031 3.492188 -8.335938 3.601562 -8.199219 L 4.175781 -8.664062 C 3.96875 -9.003906 3.710938 -9.289062 3.410156 -9.523438 C 3.097656 -9.753906 2.742188 -9.878906 2.347656 -9.878906 C 2.074219 -9.878906 1.828125 -9.808594 1.582031 -9.699219 C 1.335938 -9.589844 1.132812 -9.425781 0.953125 -9.222656 C 0.777344 -9.019531 0.640625 -8.773438 0.53125 -8.5 C 0.421875 -8.210938 0.382812 -7.898438 0.410156 -7.558594 C 0.410156 -7.257812 0.4375 -6.984375 0.519531 -6.726562 C 0.585938 -6.453125 0.683594 -6.207031 0.792969 -5.960938 C 0.902344 -5.714844 1.035156 -5.46875 1.1875 -5.238281 C 1.335938 -5.007812 1.488281 -4.789062 1.652344 -4.570312 C 1.867188 -4.242188 2.058594 -3.941406 2.25 -3.640625 C 2.429688 -3.34375 2.550781 -3.027344 2.632812 -2.714844 C 2.648438 -2.632812 2.660156 -2.566406 2.675781 -2.496094 C 2.675781 -2.414062 2.6875 -2.347656 2.6875 -2.277344 C 2.6875 -2.128906 2.660156 -1.976562 2.632812 -1.839844 C 2.59375 -1.707031 2.539062 -1.582031 2.46875 -1.472656 C 2.402344 -1.363281 2.320312 -1.269531 2.222656 -1.214844 C 2.113281 -1.144531 2.003906 -1.117188 1.867188 -1.117188 C 1.679688 -1.117188 1.515625 -1.171875 1.363281 -1.308594 C 1.214844 -1.433594 1.089844 -1.554688 1.007812 -1.679688 L 0.4375 -1.214844 C 0.464844 -1.144531 0.53125 -1.050781 0.628906 -0.914062 C 0.710938 -0.777344 0.832031 -0.65625 0.980469 -0.519531 C 1.132812 -0.382812 1.308594 -0.257812 1.527344 -0.148438 C 1.734375 -0.0390625 1.964844 0 2.238281 0 Z M 2.238281 0 "/></g></g></g><g fill="#4b2d20" fill-opacity="1"><g transform="translate(163.282383, 250.00866)"><g><path d="M 0.75 -7.898438 L 0.75 0 L 2.074219 0 L 2.074219 -7.898438 Z M 0.75 -7.898438 "/></g></g></g><g fill="#4b2d20" fill-opacity="1"><g transform="translate(167.443491, 250.00866)"><g><path d="M 0.875 -7.027344 L 0.875 0 L 1.527344 0 L 1.527344 -5.265625 L 3.507812 0 L 4.488281 0 L 4.488281 -7.898438 L 3.832031 -7.898438 L 3.832031 -2.714844 L 1.855469 -7.898438 L 0.546875 -7.898438 Z M 0.875 -7.027344 "/></g></g></g><g fill="#4b2d20" fill-opacity="1"><g transform="translate(174.018992, 250.00866)"><g><path d="M 3.042969 0 C 3.261719 0 3.480469 -0.0273438 3.695312 -0.109375 L 3.695312 -1.078125 C 3.507812 -0.792969 3.289062 -0.65625 3.042969 -0.65625 C 2.769531 -0.65625 2.539062 -0.804688 2.347656 -1.132812 C 2.265625 -1.242188 2.195312 -1.40625 2.140625 -1.609375 C 2.085938 -1.800781 2.03125 -2.03125 1.992188 -2.277344 C 1.949219 -2.523438 1.921875 -2.796875 1.910156 -3.082031 C 1.882812 -3.355469 1.882812 -3.640625 1.882812 -3.941406 C 1.882812 -4.230469 1.882812 -4.515625 1.910156 -4.800781 C 1.921875 -5.089844 1.949219 -5.363281 1.992188 -5.605469 C 2.03125 -5.851562 2.085938 -6.085938 2.140625 -6.289062 C 2.195312 -6.480469 2.265625 -6.644531 2.347656 -6.765625 C 2.550781 -7.082031 2.78125 -7.246094 3.042969 -7.246094 C 3.289062 -7.246094 3.507812 -7.09375 3.695312 -6.820312 L 3.695312 -7.804688 C 3.589844 -7.832031 3.492188 -7.84375 3.382812 -7.871094 C 3.273438 -7.886719 3.152344 -7.898438 3.042969 -7.898438 C 2.632812 -7.898438 2.265625 -7.832031 1.9375 -7.695312 C 1.609375 -7.558594 1.324219 -7.339844 1.105469 -7.039062 C 0.875 -6.726562 0.695312 -6.316406 0.585938 -5.8125 C 0.464844 -5.308594 0.410156 -4.691406 0.410156 -3.957031 C 0.410156 -3.207031 0.464844 -2.578125 0.585938 -2.074219 C 0.695312 -1.570312 0.875 -1.160156 1.105469 -0.859375 C 1.324219 -0.546875 1.609375 -0.328125 1.9375 -0.191406 C 2.265625 -0.0546875 2.632812 0 3.042969 0 Z M 3.042969 0 "/></g></g></g><g fill="#4b2d20" fill-opacity="1"><g transform="translate(179.462318, 250.00866)"><g><path d="M 0.683594 -7.898438 L 0.683594 0 L 3.640625 0 L 3.640625 -0.65625 L 2.003906 -0.65625 L 2.003906 -4.285156 L 2.988281 -4.285156 L 3.316406 -4.9375 L 2.003906 -4.9375 L 2.003906 -7.246094 L 3.316406 -7.246094 L 3.640625 -7.898438 Z M 0.683594 -7.898438 "/></g></g></g><g fill="#4b2d20" fill-opacity="1"><g transform="translate(184.851077, 250.00866)"><g/></g></g><g fill="#4b2d20" fill-opacity="1"><g transform="translate(188.916705, 250.00866)"><g><path d="M 0.683594 0 L 5.292969 0 L 5.292969 -1.308594 L 1.527344 -1.308594 C 1.527344 -1.734375 1.609375 -2.113281 1.773438 -2.457031 C 1.921875 -2.796875 2.113281 -3.109375 2.359375 -3.398438 C 2.605469 -3.667969 2.863281 -3.941406 3.164062 -4.1875 C 3.453125 -4.433594 3.722656 -4.679688 3.996094 -4.925781 C 4.269531 -5.171875 4.503906 -5.429688 4.71875 -5.703125 C 4.925781 -5.960938 5.074219 -6.261719 5.171875 -6.589844 C 5.253906 -6.890625 5.292969 -7.175781 5.292969 -7.449219 C 5.292969 -7.777344 5.226562 -8.089844 5.117188 -8.390625 C 5.007812 -8.691406 4.84375 -8.949219 4.636719 -9.167969 C 4.433594 -9.386719 4.1875 -9.550781 3.914062 -9.6875 C 3.628906 -9.808594 3.316406 -9.878906 2.988281 -9.878906 C 2.660156 -9.878906 2.359375 -9.808594 2.085938 -9.6875 C 1.8125 -9.5625 1.570312 -9.398438 1.363281 -9.195312 C 1.144531 -8.976562 0.980469 -8.730469 0.859375 -8.457031 C 0.738281 -8.183594 0.683594 -7.886719 0.683594 -7.570312 L 1.992188 -7.570312 C 1.992188 -7.707031 1.992188 -7.871094 2.003906 -8.0625 C 2.019531 -8.253906 2.058594 -8.429688 2.128906 -8.59375 C 2.183594 -8.757812 2.292969 -8.910156 2.429688 -9.03125 C 2.566406 -9.140625 2.769531 -9.207031 3.042969 -9.207031 C 3.328125 -9.207031 3.574219 -9.070312 3.765625 -8.828125 C 3.957031 -8.566406 4.050781 -8.238281 4.050781 -7.859375 C 4.050781 -7.667969 4.023438 -7.460938 3.96875 -7.246094 C 3.914062 -7.027344 3.820312 -6.808594 3.695312 -6.589844 C 3.480469 -6.207031 3.261719 -5.90625 3.015625 -5.660156 C 2.769531 -5.417969 2.539062 -5.199219 2.304688 -4.980469 C 2.058594 -4.761719 1.828125 -4.515625 1.609375 -4.269531 C 1.390625 -4.011719 1.1875 -3.683594 1.023438 -3.289062 C 0.875 -2.945312 0.777344 -2.621094 0.738281 -2.320312 C 0.695312 -2.003906 0.683594 -1.691406 0.683594 -1.378906 C 0.683594 -1.226562 0.683594 -1.078125 0.683594 -0.941406 C 0.683594 -0.804688 0.695312 -0.65625 0.695312 -0.503906 L 0.695312 -0.257812 C 0.695312 -0.175781 0.683594 -0.0820312 0.683594 0 Z M 0.683594 0 "/></g></g></g><g fill="#4b2d20" fill-opacity="1"><g transform="translate(196.228804, 250.00866)"><g><path d="M 3.398438 0 C 3.847656 0 4.242188 -0.136719 4.582031 -0.421875 C 4.925781 -0.695312 5.210938 -1.078125 5.441406 -1.542969 C 5.660156 -2.003906 5.839844 -2.523438 5.949219 -3.125 C 6.058594 -3.710938 6.125 -4.3125 6.125 -4.9375 C 6.125 -5.550781 6.058594 -6.152344 5.949219 -6.753906 C 5.839844 -7.339844 5.660156 -7.871094 5.441406 -8.335938 C 5.210938 -8.800781 4.925781 -9.167969 4.582031 -9.453125 C 4.242188 -9.726562 3.847656 -9.878906 3.398438 -9.878906 C 2.933594 -9.878906 2.539062 -9.726562 2.195312 -9.441406 C 1.855469 -9.152344 1.570312 -8.785156 1.351562 -8.320312 C 1.132812 -7.859375 0.953125 -7.324219 0.847656 -6.738281 C 0.738281 -6.140625 0.683594 -5.539062 0.683594 -4.925781 C 0.683594 -4.296875 0.738281 -3.695312 0.847656 -3.109375 C 0.953125 -2.511719 1.132812 -1.992188 1.351562 -1.527344 C 1.570312 -1.0625 1.855469 -0.695312 2.195312 -0.421875 C 2.539062 -0.136719 2.933594 0 3.398438 0 Z M 3.398438 -0.65625 C 3.179688 -0.65625 3 -0.777344 2.851562 -1.023438 C 2.703125 -1.269531 2.578125 -1.582031 2.46875 -1.992188 C 2.359375 -2.386719 2.292969 -2.835938 2.238281 -3.355469 C 2.183594 -3.875 2.167969 -4.394531 2.167969 -4.9375 C 2.167969 -5.46875 2.183594 -5.988281 2.238281 -6.507812 C 2.292969 -7.027344 2.359375 -7.476562 2.46875 -7.886719 C 2.578125 -8.28125 2.703125 -8.609375 2.851562 -8.855469 C 3 -9.097656 3.179688 -9.222656 3.398438 -9.222656 C 3.601562 -9.222656 3.777344 -9.097656 3.941406 -8.855469 C 4.09375 -8.609375 4.214844 -8.28125 4.324219 -7.886719 C 4.433594 -7.476562 4.503906 -7.027344 4.554688 -6.507812 C 4.609375 -5.988281 4.636719 -5.46875 4.636719 -4.9375 C 4.636719 -4.394531 4.609375 -3.875 4.554688 -3.355469 C 4.503906 -2.835938 4.433594 -2.386719 4.324219 -1.992188 C 4.214844 -1.582031 4.09375 -1.269531 3.941406 -1.023438 C 3.777344 -0.777344 3.601562 -0.65625 3.398438 -0.65625 Z M 3.398438 -0.65625 "/></g></g></g><g fill="#4b2d20" fill-opacity="1"><g transform="translate(204.37298, 250.00866)"><g><path d="M 0.683594 0 L 5.292969 0 L 5.292969 -1.308594 L 1.527344 -1.308594 C 1.527344 -1.734375 1.609375 -2.113281 1.773438 -2.457031 C 1.921875 -2.796875 2.113281 -3.109375 2.359375 -3.398438 C 2.605469 -3.667969 2.863281 -3.941406 3.164062 -4.1875 C 3.453125 -4.433594 3.722656 -4.679688 3.996094 -4.925781 C 4.269531 -5.171875 4.503906 -5.429688 4.71875 -5.703125 C 4.925781 -5.960938 5.074219 -6.261719 5.171875 -6.589844 C 5.253906 -6.890625 5.292969 -7.175781 5.292969 -7.449219 C 5.292969 -7.777344 5.226562 -8.089844 5.117188 -8.390625 C 5.007812 -8.691406 4.84375 -8.949219 4.636719 -9.167969 C 4.433594 -9.386719 4.1875 -9.550781 3.914062 -9.6875 C 3.628906 -9.808594 3.316406 -9.878906 2.988281 -9.878906 C 2.660156 -9.878906 2.359375 -9.808594 2.085938 -9.6875 C 1.8125 -9.5625 1.570312 -9.398438 1.363281 -9.195312 C 1.144531 -8.976562 0.980469 -8.730469 0.859375 -8.457031 C 0.738281 -8.183594 0.683594 -7.886719 0.683594 -7.570312 L 1.992188 -7.570312 C 1.992188 -7.707031 1.992188 -7.871094 2.003906 -8.0625 C 2.019531 -8.253906 2.058594 -8.429688 2.128906 -8.59375 C 2.183594 -8.757812 2.292969 -8.910156 2.429688 -9.03125 C 2.566406 -9.140625 2.769531 -9.207031 3.042969 -9.207031 C 3.328125 -9.207031 3.574219 -9.070312 3.765625 -8.828125 C 3.957031 -8.566406 4.050781 -8.238281 4.050781 -7.859375 C 4.050781 -7.667969 4.023438 -7.460938 3.96875 -7.246094 C 3.914062 -7.027344 3.820312 -6.808594 3.695312 -6.589844 C 3.480469 -6.207031 3.261719 -5.90625 3.015625 -5.660156 C 2.769531 -5.417969 2.539062 -5.199219 2.304688 -4.980469 C 2.058594 -4.761719 1.828125 -4.515625 1.609375 -4.269531 C 1.390625 -4.011719 1.1875 -3.683594 1.023438 -3.289062 C 0.875 -2.945312 0.777344 -2.621094 0.738281 -2.320312 C 0.695312 -2.003906 0.683594 -1.691406 0.683594 -1.378906 C 0.683594 -1.226562 0.683594 -1.078125 0.683594 -0.941406 C 0.683594 -0.804688 0.695312 -0.65625 0.695312 -0.503906 L 0.695312 -0.257812 C 0.695312 -0.175781 0.683594 -0.0820312 0.683594 0 Z M 0.683594 0 "/></g></g></g><g fill="#4b2d20" fill-opacity="1"><g transform="translate(211.685079, 250.00866)"><g><path d="M 0.683594 0 L 5.292969 0 L 5.292969 -1.308594 L 1.527344 -1.308594 C 1.527344 -1.734375 1.609375 -2.113281 1.773438 -2.457031 C 1.921875 -2.796875 2.113281 -3.109375 2.359375 -3.398438 C 2.605469 -3.667969 2.863281 -3.941406 3.164062 -4.1875 C 3.453125 -4.433594 3.722656 -4.679688 3.996094 -4.925781 C 4.269531 -5.171875 4.503906 -5.429688 4.71875 -5.703125 C 4.925781 -5.960938 5.074219 -6.261719 5.171875 -6.589844 C 5.253906 -6.890625 5.292969 -7.175781 5.292969 -7.449219 C 5.292969 -7.777344 5.226562 -8.089844 5.117188 -8.390625 C 5.007812 -8.691406 4.84375 -8.949219 4.636719 -9.167969 C 4.433594 -9.386719 4.1875 -9.550781 3.914062 -9.6875 C 3.628906 -9.808594 3.316406 -9.878906 2.988281 -9.878906 C 2.660156 -9.878906 2.359375 -9.808594 2.085938 -9.6875 C 1.8125 -9.5625 1.570312 -9.398438 1.363281 -9.195312 C 1.144531 -8.976562 0.980469 -8.730469 0.859375 -8.457031 C 0.738281 -8.183594 0.683594 -7.886719 0.683594 -7.570312 L 1.992188 -7.570312 C 1.992188 -7.707031 1.992188 -7.871094 2.003906 -8.0625 C 2.019531 -8.253906 2.058594 -8.429688 2.128906 -8.59375 C 2.183594 -8.757812 2.292969 -8.910156 2.429688 -9.03125 C 2.566406 -9.140625 2.769531 -9.207031 3.042969 -9.207031 C 3.328125 -9.207031 3.574219 -9.070312 3.765625 -8.828125 C 3.957031 -8.566406 4.050781 -8.238281 4.050781 -7.859375 C 4.050781 -7.667969 4.023438 -7.460938 3.96875 -7.246094 C 3.914062 -7.027344 3.820312 -6.808594 3.695312 -6.589844 C 3.480469 -6.207031 3.261719 -5.90625 3.015625 -5.660156 C 2.769531 -5.417969 2.539062 -5.199219 2.304688 -4.980469 C 2.058594 -4.761719 1.828125 -4.515625 1.609375 -4.269531 C 1.390625 -4.011719 1.1875 -3.683594 1.023438 -3.289062 C 0.875 -2.945312 0.777344 -2.621094 0.738281 -2.320312 C 0.695312 -2.003906 0.683594 -1.691406 0.683594 -1.378906 C 0.683594 -1.226562 0.683594 -1.078125 0.683594 -0.941406 C 0.683594 -0.804688 0.695312 -0.65625 0.695312 -0.503906 L 0.695312 -0.257812 C 0.695312 -0.175781 0.683594 -0.0820312 0.683594 0 Z M 0.683594 0 "/></g></g></g></svg>